<svg width="381" height="357" viewBox="0 0 381 357" fill="none" xmlns="http://www.w3.org/2000/svg">
<g filter="url(#filter0_d_4_29)">
<path d="M377 165C367 274 293.501 349 190.5 349C87.4989 349 4 266.62 4 165C4 13 126.999 0 230 0C333.001 0 377 63.3796 377 165Z" fill="#193D4F" fill-opacity="0.31" shape-rendering="crispEdges"/>
<path d="M371 164.725C361.142 270.971 289.852 343 190.5 343C90.736 343 10 263.231 10 165C10 127.81 17.5196 99.5939 30.0145 78.1103C42.4912 56.658 60.1545 41.5281 81.1007 30.8449C123.308 9.31785 178.471 6 230 6C280.215 6 315.069 21.3937 337.523 48.2416C360.099 75.2366 370.96 114.778 371 164.725Z" stroke="#193D4F" stroke-width="12" shape-rendering="crispEdges"/>
</g>
<path d="M104.375 187H87.1719C86.9219 187 86.7969 186.844 86.7969 186.531L86.9844 120.578C86.9844 120.328 87.1094 120.203 87.3594 120.203H105.828C109.422 120.203 112.688 121.078 115.625 122.828C118.5 124.578 120.766 126.906 122.422 129.812C124.078 132.688 124.906 135.812 124.906 139.188C124.906 141.938 124.281 144.5 123.031 146.875C121.781 149.25 120.297 151.172 118.578 152.641C120.422 154.484 121.859 156.625 122.891 159.062C123.922 161.5 124.438 164.062 124.438 166.75C124.438 170.469 123.547 173.859 121.766 176.922C119.953 179.984 117.531 182.438 114.5 184.281C111.469 186.094 108.094 187 104.375 187ZM105.828 131.594H98.5156V146.688H105.828C108.047 146.688 109.844 145.906 111.219 144.344C112.594 142.75 113.281 141.031 113.281 139.188C113.281 137.156 112.547 135.391 111.078 133.891C109.609 132.359 107.859 131.594 105.828 131.594ZM104.375 158.312H98.5156L98.4219 175.281H104.375C106.688 175.281 108.672 174.438 110.328 172.75C111.984 171.062 112.812 169.062 112.812 166.75C112.812 164.438 111.984 162.453 110.328 160.797C108.672 159.141 106.688 158.312 104.375 158.312ZM149.094 187.938C145.688 187.938 142.547 187.062 139.672 185.312C136.828 183.562 134.531 181.234 132.781 178.328C131.062 175.391 130.203 172.172 130.203 168.672L130.297 138.25C130.297 134.688 131.156 131.484 132.875 128.641C134.562 125.766 136.844 123.469 139.719 121.75C142.594 120 145.719 119.125 149.094 119.125C152.594 119.125 155.734 119.984 158.516 121.703C161.328 123.422 163.578 125.734 165.266 128.641C166.984 131.516 167.844 134.719 167.844 138.25L167.938 168.672C167.938 172.172 167.094 175.375 165.406 178.281C163.688 181.219 161.406 183.562 158.562 185.312C155.719 187.062 152.562 187.938 149.094 187.938ZM149.094 176.359C151.031 176.359 152.719 175.578 154.156 174.016C155.594 172.422 156.312 170.641 156.312 168.672L156.219 138.25C156.219 136.125 155.547 134.328 154.203 132.859C152.859 131.391 151.156 130.656 149.094 130.656C147.125 130.656 145.438 131.375 144.031 132.812C142.625 134.25 141.922 136.062 141.922 138.25V168.672C141.922 170.766 142.625 172.578 144.031 174.109C145.438 175.609 147.125 176.359 149.094 176.359ZM192.875 187.938C189.406 187.938 186.234 187.062 183.359 185.312C180.516 183.562 178.25 181.219 176.562 178.281C174.906 175.312 174.078 172.016 174.078 168.391L174.172 138.438C174.172 134.875 174.984 131.656 176.609 128.781C178.234 125.875 180.469 123.547 183.312 121.797C186.188 120.016 189.375 119.125 192.875 119.125C196.438 119.125 199.609 119.984 202.391 121.703C205.203 123.422 207.438 125.75 209.094 128.688C210.781 131.594 211.625 134.844 211.625 138.438V142.844C211.625 143.094 211.5 143.219 211.25 143.219H200.469C200.219 143.219 200.094 143.094 200.094 142.844V138.438C200.094 136.312 199.406 134.484 198.031 132.953C196.656 131.422 194.938 130.656 192.875 130.656C190.594 130.656 188.844 131.438 187.625 133C186.406 134.562 185.797 136.375 185.797 138.438V168.391C185.797 170.734 186.484 172.656 187.859 174.156C189.234 175.625 190.906 176.359 192.875 176.359C194.938 176.359 196.656 175.547 198.031 173.922C199.406 172.266 200.094 170.422 200.094 168.391V163.938C200.094 163.688 200.219 163.562 200.469 163.562H211.344C211.594 163.562 211.719 163.688 211.719 163.938V168.391C211.719 171.984 210.875 175.266 209.188 178.234C207.469 181.172 205.203 183.531 202.391 185.312C199.578 187.062 196.406 187.938 192.875 187.938ZM236.375 187.938C232.906 187.938 229.734 187.062 226.859 185.312C224.016 183.562 221.75 181.219 220.062 178.281C218.406 175.312 217.578 172.016 217.578 168.391L217.672 138.438C217.672 134.875 218.484 131.656 220.109 128.781C221.734 125.875 223.969 123.547 226.812 121.797C229.688 120.016 232.875 119.125 236.375 119.125C239.938 119.125 243.109 119.984 245.891 121.703C248.703 123.422 250.938 125.75 252.594 128.688C254.281 131.594 255.125 134.844 255.125 138.438V142.844C255.125 143.094 255 143.219 254.75 143.219H243.969C243.719 143.219 243.594 143.094 243.594 142.844V138.438C243.594 136.312 242.906 134.484 241.531 132.953C240.156 131.422 238.438 130.656 236.375 130.656C234.094 130.656 232.344 131.438 231.125 133C229.906 134.562 229.297 136.375 229.297 138.438V168.391C229.297 170.734 229.984 172.656 231.359 174.156C232.734 175.625 234.406 176.359 236.375 176.359C238.438 176.359 240.156 175.547 241.531 173.922C242.906 172.266 243.594 170.422 243.594 168.391V163.938C243.594 163.688 243.719 163.562 243.969 163.562H254.844C255.094 163.562 255.219 163.688 255.219 163.938V168.391C255.219 171.984 254.375 175.266 252.688 178.234C250.969 181.172 248.703 183.531 245.891 185.312C243.078 187.062 239.906 187.938 236.375 187.938ZM293.609 187H262.578C262.328 187 262.203 186.844 262.203 186.531L262.297 120.578C262.297 120.328 262.422 120.203 262.672 120.203H293.516C293.766 120.203 293.891 120.359 293.891 120.672V131.406C293.891 131.656 293.766 131.781 293.516 131.781H273.828V146.781H293.516C293.766 146.781 293.891 146.906 293.891 147.156L293.984 158.031C293.984 158.281 293.859 158.406 293.609 158.406H273.828V175.188H293.609C293.859 175.188 293.984 175.344 293.984 175.656V186.625C293.984 186.875 293.859 187 293.609 187Z" fill="white"/>
<path d="M135.602 231H120.086C119.961 231 119.898 230.922 119.898 230.766L119.945 197.836C119.945 197.68 120.023 197.602 120.18 197.602H125.523C125.68 197.602 125.758 197.68 125.758 197.836L125.711 225.094H135.602C135.758 225.094 135.836 225.172 135.836 225.328V230.766C135.836 230.922 135.758 231 135.602 231ZM154.68 231H139.164C139.039 231 138.977 230.922 138.977 230.766L139.023 197.789C139.023 197.664 139.086 197.602 139.211 197.602H154.633C154.758 197.602 154.82 197.68 154.82 197.836V203.203C154.82 203.328 154.758 203.391 154.633 203.391H144.789V210.891H154.633C154.758 210.891 154.82 210.953 154.82 211.078L154.867 216.516C154.867 216.641 154.805 216.703 154.68 216.703H144.789V225.094H154.68C154.805 225.094 154.867 225.172 154.867 225.328V230.812C154.867 230.938 154.805 231 154.68 231ZM157.516 230.766L163.469 197.789C163.5 197.664 163.578 197.602 163.703 197.602H170.664C170.789 197.602 170.867 197.664 170.898 197.789L176.617 230.766C176.633 230.922 176.57 231 176.43 231H171.109C170.953 231 170.867 230.922 170.852 230.766L170.336 227.25H163.797L163.281 230.766C163.266 230.922 163.188 231 163.047 231H157.703C157.578 231 157.516 230.922 157.516 230.766ZM166.914 208.641L164.758 222.117H169.375L167.406 208.641L167.125 206.859L166.914 208.641ZM188.406 231.469C186.672 231.469 185.109 231.039 183.719 230.18C182.312 229.32 181.18 228.164 180.32 226.711C179.477 225.258 179.055 223.633 179.055 221.836V206.625C179.055 204.875 179.484 203.281 180.344 201.844C181.188 200.391 182.32 199.234 183.742 198.375C185.164 197.5 186.719 197.062 188.406 197.062C190.172 197.062 191.766 197.484 193.188 198.328C194.609 199.188 195.734 200.336 196.562 201.773C197.406 203.211 197.828 204.828 197.828 206.625V208.828C197.828 208.953 197.75 209.016 197.594 209.016H192.203C192.078 209.016 192.016 208.953 192.016 208.828V207C192.016 205.781 191.672 204.773 190.984 203.977C190.297 203.18 189.438 202.781 188.406 202.781C187.484 202.781 186.664 203.164 185.945 203.93C185.227 204.695 184.867 205.594 184.867 206.625V221.836C184.867 222.883 185.219 223.789 185.922 224.555C186.625 225.305 187.453 225.68 188.406 225.68C189.438 225.68 190.297 225.312 190.984 224.578C191.672 223.828 192.016 222.914 192.016 221.836V219.469H188.664C188.492 219.469 188.406 219.391 188.406 219.234V213.867C188.406 213.711 188.492 213.633 188.664 213.633H197.641C197.766 213.633 197.828 213.711 197.828 213.867V221.836C197.828 223.633 197.406 225.258 196.562 226.711C195.703 228.164 194.57 229.32 193.164 230.18C191.758 231.039 190.172 231.469 188.406 231.469ZM210.062 231.469C208.375 231.469 206.812 231.031 205.375 230.156C203.938 229.281 202.789 228.109 201.93 226.641C201.086 225.156 200.664 223.539 200.664 221.789L200.758 197.789C200.758 197.664 200.82 197.602 200.945 197.602H206.336C206.461 197.602 206.523 197.664 206.523 197.789V221.789C206.523 222.867 206.867 223.789 207.555 224.555C208.242 225.305 209.078 225.68 210.062 225.68C211.094 225.68 211.953 225.305 212.641 224.555C213.328 223.789 213.672 222.867 213.672 221.789V197.789C213.672 197.664 213.734 197.602 213.859 197.602H219.25C219.375 197.602 219.438 197.664 219.438 197.789L219.531 221.789C219.531 223.555 219.109 225.18 218.266 226.664C217.406 228.133 216.266 229.305 214.844 230.18C213.422 231.039 211.828 231.469 210.062 231.469ZM239.008 231H223.492C223.367 231 223.305 230.922 223.305 230.766L223.352 197.789C223.352 197.664 223.414 197.602 223.539 197.602H238.961C239.086 197.602 239.148 197.68 239.148 197.836V203.203C239.148 203.328 239.086 203.391 238.961 203.391H229.117V210.891H238.961C239.086 210.891 239.148 210.953 239.148 211.078L239.195 216.516C239.195 216.641 239.133 216.703 239.008 216.703H229.117V225.094H239.008C239.133 225.094 239.195 225.172 239.195 225.328V230.812C239.195 230.938 239.133 231 239.008 231ZM251.617 231.469C249.914 231.469 248.344 231.031 246.906 230.156C245.484 229.281 244.344 228.117 243.484 226.664C242.641 225.195 242.219 223.586 242.219 221.836V219.633C242.219 219.461 242.297 219.375 242.453 219.375H247.844C247.969 219.375 248.031 219.461 248.031 219.633V221.836C248.031 222.883 248.383 223.789 249.086 224.555C249.789 225.305 250.633 225.68 251.617 225.68C252.617 225.68 253.469 225.297 254.172 224.531C254.875 223.75 255.227 222.852 255.227 221.836C255.227 220.664 254.461 219.641 252.93 218.766C252.68 218.609 252.352 218.422 251.945 218.203C251.555 217.969 251.086 217.703 250.539 217.406C249.992 217.109 249.461 216.82 248.945 216.539C248.43 216.242 247.93 215.961 247.445 215.695C245.695 214.664 244.391 213.375 243.531 211.828C242.688 210.266 242.266 208.516 242.266 206.578C242.266 204.797 242.703 203.188 243.578 201.75C244.453 200.328 245.594 199.203 247 198.375C248.422 197.531 249.961 197.109 251.617 197.109C253.32 197.109 254.883 197.531 256.305 198.375C257.727 199.234 258.859 200.375 259.703 201.797C260.562 203.219 260.992 204.812 260.992 206.578V210.516C260.992 210.641 260.93 210.703 260.805 210.703H255.414C255.289 210.703 255.227 210.641 255.227 210.516L255.18 206.578C255.18 205.453 254.828 204.539 254.125 203.836C253.422 203.133 252.586 202.781 251.617 202.781C250.633 202.781 249.789 203.156 249.086 203.906C248.383 204.656 248.031 205.547 248.031 206.578C248.031 207.625 248.25 208.5 248.688 209.203C249.141 209.906 249.961 210.578 251.148 211.219C251.273 211.281 251.562 211.438 252.016 211.688C252.469 211.938 252.969 212.219 253.516 212.531C254.078 212.828 254.586 213.102 255.039 213.352C255.492 213.586 255.766 213.727 255.859 213.773C257.453 214.664 258.711 215.758 259.633 217.055C260.57 218.352 261.039 219.945 261.039 221.836C261.039 223.664 260.617 225.305 259.773 226.758C258.914 228.211 257.773 229.359 256.352 230.203C254.93 231.047 253.352 231.469 251.617 231.469Z" fill="white"/>
<rect x="76" y="211" width="36" height="10" rx="4" fill="white"/>
<rect x="269" y="211" width="36" height="10" rx="4" fill="white"/>
<path d="M351 318C351 330.703 340.703 341 328 341C315.297 341 305 330.703 305 318C305 305.297 315.297 298 328 298C340.703 298 351 305.297 351 318Z" fill="white"/>
<defs>
<filter id="filter0_d_4_29" x="0" y="0" width="381" height="357" filterUnits="userSpaceOnUse" color-interpolation-filters="sRGB">
<feFlood flood-opacity="0" result="BackgroundImageFix"/>
<feColorMatrix in="SourceAlpha" type="matrix" values="0 0 0 0 0 0 0 0 0 0 0 0 0 0 0 0 0 0 127 0" result="hardAlpha"/>
<feOffset dy="4"/>
<feGaussianBlur stdDeviation="2"/>
<feComposite in2="hardAlpha" operator="out"/>
<feColorMatrix type="matrix" values="0 0 0 0 0 0 0 0 0 0 0 0 0 0 0 0 0 0 0.25 0"/>
<feBlend mode="normal" in2="BackgroundImageFix" result="effect1_dropShadow_4_29"/>
<feBlend mode="normal" in="SourceGraphic" in2="effect1_dropShadow_4_29" result="shape"/>
</filter>
</defs>
</svg>
